<svg width="878" height="887" viewBox="0 0 878 887" fill="none" xmlns="http://www.w3.org/2000/svg">
<path d="M861.82 348.284C942.907 643.973 689.606 944.295 317.375 875.584C-49.4491 806.1 -286.533 519.675 -258.732 371.445C-233.247 220.126 27.0048 112.813 291.118 27.1172C549.054 -51.6304 782.277 49.5062 861.82 348.284Z" stroke="#211F25" stroke-miterlimit="10" stroke-linecap="round" stroke-linejoin="round"/>
<path d="M780.732 375.305C838.652 620.812 624.735 860.915 315.831 811.505C10.015 762.866 -196.951 532.8 -176.1 395.378C-156.021 255.639 62.5288 153.731 292.663 91.1961C519.708 33.2935 723.585 128.254 780.732 375.305Z" stroke="#211F25" stroke-miterlimit="10" stroke-linecap="round" stroke-linejoin="round"/>
<path d="M682.655 402.326C718.179 589.931 549.826 766.727 312.741 736.617C77.2013 707.28 -91.1518 537.432 -77.2511 417.767C-63.3504 296.557 107.32 206.229 294.979 166.083C481.094 129.026 647.903 213.178 682.655 402.326Z" stroke="#211F25" stroke-miterlimit="10" stroke-linecap="round" stroke-linejoin="round"/>
<path d="M606.974 419.311C629.369 564.453 495.768 698.015 311.197 679.487C127.399 661.73 -8.51898 533.572 -0.0241 431.663C8.47078 328.983 143.617 250.235 297.297 223.986C449.432 199.281 584.578 272.624 606.974 419.311Z" stroke="#211F25" stroke-miterlimit="10" stroke-linecap="round" stroke-linejoin="round"/>
<path d="M507.351 435.524C518.163 528.94 428.581 611.548 308.88 603.827C189.179 596.879 96.508 517.359 100.369 444.016C103.458 369.901 193.813 311.998 299.613 299.645C404.641 287.293 496.54 342.107 507.351 435.524Z" stroke="#211F25" stroke-miterlimit="10" stroke-linecap="round" stroke-linejoin="round"/>
<path d="M406.958 446.332C410.047 491.11 365.255 529.712 306.564 528.94C247.872 527.396 200.764 491.11 200.764 450.964C200.764 410.819 246.327 378.393 301.93 374.533C356.761 370.673 403.869 401.554 406.958 446.332Z" stroke="#211F25" stroke-miterlimit="10" stroke-linecap="round" stroke-linejoin="round"/>
</svg>
