<svg width="579" height="160" viewBox="0 0 579 160" fill="none" xmlns="http://www.w3.org/2000/svg">
<path d="M86.8782 147.943C111.904 157.04 137.712 161.02 163.129 160.451C188.937 159.883 214.354 154.766 239.38 147.375C264.406 139.983 289.432 129.749 313.676 117.809C337.92 105.87 361.773 91.6555 385.626 77.4414C409.479 63.2274 433.332 48.4448 457.185 35.3679C481.429 22.2909 506.064 10.3511 531.481 2.95983C556.898 -5.00004 583.097 -8.41141 608.905 -1.58867C621.809 1.8227 634.322 6.93976 646.053 15.4682C657.784 23.4281 668.342 34.7993 678.118 47.3077V47.8762C678.118 47.8762 678.118 47.8762 677.727 47.8762C657.784 23.9966 633.931 7.50832 608.514 2.95983C596.001 0.117019 583.097 -0.451543 570.193 1.25414C557.289 2.39127 544.776 5.23408 532.263 9.21401C507.237 17.1739 482.602 28.5451 458.749 41.0535C434.505 53.5618 410.652 67.2073 386.408 80.8528C362.555 94.4983 338.311 107.575 314.067 120.084C289.823 132.592 265.189 143.963 240.163 152.492C215.136 161.02 189.328 165.569 163.129 165.569C137.321 165 111.122 159.883 86.8782 147.943C86.4872 148.512 86.4872 148.512 86.8782 147.943C86.4872 147.943 86.4872 147.943 86.8782 147.943Z" fill="#242228"/>
<path d="M13.5047 172.173C39.1979 179.167 65.2469 180.996 90.5296 178.325C116.202 175.622 141.108 168.418 165.436 158.98C189.764 149.543 213.857 137.272 237.029 123.366C260.202 109.46 282.796 93.3196 305.39 77.1796C327.984 61.0395 350.532 44.3329 373.22 29.3261C396.298 14.2869 419.86 0.348526 444.578 -9.12169C469.249 -19.1585 495.075 -24.7272 521.36 -20.0646C534.502 -17.7332 547.395 -13.6697 559.792 -6.14175C572.142 0.819573 583.605 11.2777 594.383 22.9338L594.43 23.5004C594.43 23.5004 594.43 23.5004 594.04 23.5327C572.189 1.38619 547.053 -13.0707 521.346 -15.4993C508.641 -17.2964 495.734 -16.7947 483.016 -14.0265C470.25 -11.825 458.015 -7.95596 445.875 -2.95373C421.594 7.05073 397.985 20.4225 375.249 34.8627C352.124 49.3353 329.483 64.9087 306.452 80.5145C283.811 96.0879 260.733 111.127 237.607 125.6C214.482 140.072 190.873 153.444 166.639 164.015C142.405 174.586 117.062 181.256 90.9533 183.425C65.1867 184.995 38.6539 182.064 13.5047 172.173C13.1621 172.772 13.1621 172.772 13.5047 172.173C13.115 172.205 13.115 172.205 13.5047 172.173Z" fill="#242228"/>
</svg>