<svg width="32" height="22" viewBox="0 0 32 22" fill="none" xmlns="http://www.w3.org/2000/svg">
<path d="M20.9127 8.50239V15.0648C20.9127 17.5996 21.0911 19.4585 21.4478 20.6414C21.1098 20.7916 20.6686 20.8667 20.1241 20.8667C19.5796 20.8667 19.2134 20.7447 19.0256 20.5006C18.8379 20.2565 18.744 19.8434 18.744 19.2613C18.744 19.1299 18.744 18.4727 18.744 17.2898C18.7628 16.1069 18.7722 14.4264 18.7722 12.2483C18.7909 10.0515 18.8003 7.65745 18.8003 5.06629C17.0729 8.53994 15.1858 13.7598 13.1392 20.7259C12.9139 20.801 12.6604 20.8386 12.3788 20.8386C11.6465 20.8386 11.1771 20.5945 10.9705 20.1063C10.5199 19.0923 9.66556 16.8392 8.40753 13.3467C7.16828 9.83552 6.06047 7.09415 5.08409 5.12262V15.0648C5.08409 17.5996 5.26247 19.4585 5.61922 20.6414C5.28124 20.7916 4.93388 20.8667 4.57712 20.8667C4.0326 20.8667 3.66646 20.7447 3.4787 20.5006C3.29093 20.2565 3.19705 19.8434 3.19705 19.2613C3.19705 18.9609 3.20644 18.2192 3.22521 17.0363C3.24399 15.8534 3.25338 14.9333 3.25338 14.2762V7.17865C3.25338 5.07568 3.075 3.42335 2.71825 2.22165C3.3191 2.07144 3.86362 1.99633 4.35181 1.99633C5.14042 1.99633 5.80698 2.44697 6.3515 3.34824C7.08379 4.62504 7.82546 6.18349 8.57652 8.02359C9.32758 9.86369 9.90965 11.4221 10.3227 12.6989C10.7546 13.957 11.3554 15.7877 12.1253 18.1911C12.7074 15.8628 13.4866 13.3467 14.463 10.6429C15.4581 7.9391 16.5659 5.50754 17.7864 3.34824C18.2934 2.44697 18.9787 1.99633 19.8424 1.99633C20.4808 1.99633 21.0066 2.07144 21.4196 2.22165C21.0817 3.34824 20.9127 5.44182 20.9127 8.50239Z" fill="#96855A"/>
<path d="M29.5314 18.3882C29.5314 19.0642 28.9962 19.6838 27.926 20.2471C26.8557 20.7916 25.532 21.0639 23.9547 21.0639C21.3073 21.0639 19.1855 20.1814 17.5895 18.4164C15.9935 16.6326 15.1955 14.3043 15.1955 11.4315C15.1955 8.42729 15.9935 6.08022 17.5895 4.39034C19.1855 2.68167 21.3448 1.82734 24.0674 1.82734C25.532 1.82734 26.7618 2.12777 27.757 2.72862C28.7521 3.31069 29.2497 4.03358 29.2497 4.8973C29.2497 5.66714 28.7146 6.13655 27.6443 6.30554C27.2876 5.38549 26.7243 4.70015 25.9544 4.24951C25.1846 3.7801 24.3678 3.54539 23.5041 3.54539C21.7391 3.54539 20.2933 4.24951 19.1667 5.65775C18.0589 7.04721 17.505 8.78404 17.505 10.8682C17.505 13.2716 18.0683 15.2901 19.1949 16.9237C20.3215 18.5384 21.8893 19.3458 23.8984 19.3458C25.4005 19.3458 26.6116 18.8952 27.5317 17.9939C27.4941 15.6469 27.4284 13.7504 27.3345 12.3046C27.6537 12.2483 27.9917 12.2201 28.3484 12.2201C29.2685 12.2201 29.7285 12.5769 29.7285 13.2904L29.644 15.0929C29.5689 16.2946 29.5314 17.3931 29.5314 18.3882Z" fill="#C7B27D"/>
</svg>