<svg width="41" height="40" fill="none" xmlns="http://www.w3.org/2000/svg">
    <path d="M40.078 20.162c0-10.82-8.77-19.59-19.59-19.59C9.67.572.898 9.342.898 20.162c0 10.819 8.771 19.59 19.59 19.59 10.814-.013 19.577-8.776 19.59-19.59Zm-37.22 0c0-9.737 7.893-17.63 17.63-17.63 9.737-.001 17.63 7.893 17.63 17.63 0 9.737-7.893 17.63-17.63 17.63-9.732-.01-17.62-7.898-17.63-17.63Z" fill="#C7B27D"/>
    <path d="M28.082 17.868a.98.98 0 0 0-1.475-1.29l-6.12 6.994-6.118-6.994a.98.98 0 1 0-1.475 1.29l6.856 7.836a.98.98 0 0 0 1.475 0l6.857-7.836Z" fill="#C7B27D"/>
</svg>
