<svg width="878" height="887" fill="none" xmlns="http://www.w3.org/2000/svg">
    <path d="M861.82 348.284c81.087 295.689-172.214 596.011-544.445 527.3C-49.449 806.1-286.533 519.675-258.732 371.445c25.485-151.319 285.737-258.632 549.85-344.328C549.054-51.63 782.277 49.507 861.82 348.284Z" stroke="#211F25" stroke-miterlimit="10" stroke-linecap="round" stroke-linejoin="round"/>
    <path d="M780.732 375.305c57.92 245.507-155.997 485.61-464.901 436.2C10.015 762.866-196.951 532.8-176.1 395.378c20.079-139.739 238.629-241.647 468.763-304.182 227.045-57.902 430.922 37.058 488.069 284.109Z" stroke="#211F25" stroke-miterlimit="10" stroke-linecap="round" stroke-linejoin="round"/>
    <path d="M682.655 402.326c35.524 187.605-132.829 364.401-369.914 334.291C77.201 707.28-91.152 537.432-77.251 417.767c13.9-121.21 184.571-211.538 372.23-251.684 186.115-37.057 352.924 47.095 387.676 236.243Z" stroke="#211F25" stroke-miterlimit="10" stroke-linecap="round" stroke-linejoin="round"/>
    <path d="M606.974 419.311c22.395 145.142-111.206 278.704-295.777 260.176C127.399 661.73-8.519 533.572-.024 431.663c8.495-102.68 143.641-181.428 297.321-207.677 152.135-24.705 287.281 48.638 309.677 195.325Z" stroke="#211F25" stroke-miterlimit="10" stroke-linecap="round" stroke-linejoin="round"/>
    <path d="M507.351 435.524c10.812 93.416-78.77 176.024-198.471 168.303-119.701-6.948-212.372-86.468-208.511-159.811 3.089-74.115 93.444-132.018 199.244-144.371 105.028-12.352 196.927 42.462 207.738 135.879Z" stroke="#211F25" stroke-miterlimit="10" stroke-linecap="round" stroke-linejoin="round"/>
    <path d="M406.958 446.332c3.089 44.778-41.703 83.38-100.394 82.608-58.692-1.544-105.8-37.83-105.8-77.976 0-40.145 45.563-72.571 101.166-76.431 54.831-3.86 101.939 27.021 105.028 71.799Z" stroke="#211F25" stroke-miterlimit="10" stroke-linecap="round" stroke-linejoin="round"/>
</svg>
