<svg width="74" height="89" fill="none" xmlns="http://www.w3.org/2000/svg">
    <path d="M71.28 41.157 60.258 29.268a6.854 6.854 0 0 0-5.013-2.18H18.755a6.853 6.853 0 0 0-5.013 2.18L2.72 41.158a5.488 5.488 0 0 0-.217 7.19l31.658 38.52A3.66 3.66 0 0 0 37 88.206a3.66 3.66 0 0 0 2.84-1.336l31.658-38.522a5.488 5.488 0 0 0-.217-7.19ZM55.853 29.682l-2.934 8.509c-.23.666.13 1.39.804 1.618a1.288 1.288 0 0 0 1.636-.795l2.827-8.198c.058.057.116.115.172.175L69.38 42.88c.16.17.291.358.402.555H52.724L39.93 29.637h15.314c.205 0 .408.016.608.045Zm-6.625 13.753H24.773L37 30.25l12.227 13.186ZM34.069 29.637 22.452 42.166l-4.305-12.484c.2-.03.404-.045.608-.045H34.07Zm-18.427 1.354c.056-.06.114-.118.173-.175l4.351 12.62H4.218c.11-.197.242-.385.401-.556l11.024-11.89ZM4.056 45.984h46.175L37 84.354 25.252 50.284a1.292 1.292 0 0 0-1.636-.795 1.271 1.271 0 0 0-.804 1.617l10.64 30.859L4.503 46.74a2.906 2.906 0 0 1-.446-.756Zm36.49 35.982 12.408-35.982h16.99a2.902 2.902 0 0 1-.447.756l-28.95 35.226ZM37 21.463c.711 0 1.289-.57 1.289-1.274V2.479c0-.704-.578-1.274-1.29-1.274-.711 0-1.289.57-1.289 1.274v17.71c0 .704.578 1.274 1.29 1.274ZM23.445 22.121a1.29 1.29 0 0 0 1.73.57c.637-.315.895-1.08.576-1.71L20.24 10.083a1.296 1.296 0 0 0-1.73-.57 1.268 1.268 0 0 0-.576 1.71l5.511 10.898ZM48.825 22.69a1.294 1.294 0 0 0 1.73-.569l5.51-10.898c.32-.63.061-1.395-.576-1.71a1.296 1.296 0 0 0-1.73.57L48.25 20.98c-.32.63-.061 1.395.576 1.71Z" fill="#C7B27D" stroke="#17161A" stroke-width="1.5"/>
</svg>
