<svg width="579" height="160" fill="none" xmlns="http://www.w3.org/2000/svg">
    <path d="M86.878 147.943c25.026 9.097 50.834 13.077 76.251 12.508 25.808-.568 51.225-5.685 76.251-13.076 25.026-7.392 50.052-17.626 74.296-29.566 24.244-11.939 48.097-26.153 71.95-40.368 23.853-14.214 47.706-28.996 71.559-42.073C481.429 22.29 506.064 10.35 531.481 2.96 556.898-5 583.097-8.411 608.905-1.59c12.904 3.412 25.417 8.529 37.148 17.057 11.731 7.96 22.289 19.331 32.065 31.84v.568h-.391c-19.943-23.88-43.796-40.368-69.213-44.916-12.513-2.843-25.417-3.412-38.321-1.706-12.904 1.137-25.417 3.98-37.93 7.96-25.026 7.96-49.661 19.331-73.514 31.84-24.244 12.508-48.097 26.153-72.341 39.799-23.853 13.645-48.097 26.722-72.341 39.231-24.244 12.508-48.878 23.879-73.904 32.408-25.027 8.528-50.835 13.077-77.034 13.077-25.808-.569-52.007-5.686-76.25-17.626-.392.569-.392.569 0 0-.392 0-.392 0 0 0Z" fill="#242228"/>
    <path d="M13.505 172.173c25.693 6.994 51.742 8.823 77.025 6.152 25.672-2.703 50.578-9.907 74.906-19.345 24.328-9.437 48.421-21.708 71.593-35.614 23.173-13.906 45.767-30.046 68.361-46.186s45.142-32.847 67.83-47.854C396.298 14.286 419.86.35 444.578-9.122c24.671-10.037 50.497-15.605 76.782-10.943 13.142 2.332 26.035 6.395 38.432 13.923 12.35 6.962 23.813 17.42 34.591 29.076l.047.566-.39.033C572.189 1.386 547.053-13.071 521.346-15.5c-12.705-1.797-25.612-1.296-38.33 1.473-12.766 2.201-25.001 6.07-37.141 11.072-24.281 10.005-47.89 23.377-70.626 37.817-23.125 14.472-45.766 30.046-68.797 45.651-22.641 15.574-45.719 30.613-68.845 45.086-23.125 14.472-46.734 27.844-70.968 38.415-24.234 10.571-49.577 17.241-75.686 19.41-25.766 1.57-52.3-1.361-77.448-11.252-.343.599-.343.599 0 0-.39.032-.39.032 0 0Z" fill="#242228"/>
</svg>
