<svg width="59" height="59" fill="none" xmlns="http://www.w3.org/2000/svg">
    <g clip-path="url(#a)">
        <path fill-rule="evenodd" clip-rule="evenodd" d="M37.795 18.277c1.126 1.167 1.537 2.806 1.343 4.391-.28 2.301-.944 4.455-1.724 6.627-.833 2.324-1.68 4.643-2.53 6.96-1.36 3.71-2.73 7.414-4.076 11.128a11.972 11.972 0 0 0-.668 2.882c-.103 1.06.66 1.583 1.618 1.112a7.935 7.935 0 0 0 2.116-1.498c.982-.993 1.96-1.991 2.913-3.011a74.75 74.75 0 0 0 1.411-1.55c.368-.418.747-1.046 1.253-1.3.958-.48 1.697.703 1.524 1.53-.166.793-.711 1.487-1.213 2.12l-.034.043-.137.172c-1.686 2.145-3.535 4.213-5.632 5.96-2.063 1.715-4.352 3.173-6.866 4.118-.82.308-1.658.56-2.511.755-1.647.374-3.466.347-5.15.102-1.233-.179-2.342-.966-2.865-2.111-.908-1.988-.276-4.443.193-6.467.575-2.477 1.438-4.836 2.32-7.21l.067-.18.034-.09.067-.18.067-.18c1.022-2.752 2.072-5.492 3.126-8.23.962-2.498 1.927-4.995 2.879-7.497.072-.19.154-.38.235-.57l.031-.07c.21-.487.42-.972.497-1.479.188-1.215-.688-2.296-1.904-1.596-2.103 1.21-3.677 3.011-5.238 4.823l-.19.22a64.4 64.4 0 0 1-1.472 1.668c-.494.536-1.083 1.2-1.933.586-.907-.654-.638-1.494-.122-2.206 2.863-3.95 6.3-7.647 10.781-9.734 1.873-.872 4.49-1.76 6.942-1.79 1.837-.021 3.581.44 4.848 1.752ZM40.623.456c2.357.917 3.627 2.966 3.627 5.851 0 5.199-5.616 8.755-10.31 6.528-2.427-1.15-3.607-3.878-3.019-6.975.814-4.29 5.648-6.982 9.702-5.404Z" fill="#C7B07D"/>
    </g>
    <defs>
        <clipPath id="a">
            <path fill="#fff" d="M0 0h59v59H0z"/>
        </clipPath>
    </defs>
</svg>
