<svg width="32" height="22" fill="none" xmlns="http://www.w3.org/2000/svg">
    <path d="M20.913 8.502v6.563c0 2.535.178 4.394.535 5.576-.338.15-.78.226-1.324.226s-.91-.122-1.098-.366c-.188-.245-.282-.658-.282-1.24V17.29c.019-1.183.028-2.864.028-5.042.019-2.196.028-4.59.028-7.182-1.727 3.474-3.614 8.694-5.66 15.66a2.397 2.397 0 0 1-.761.113c-.732 0-1.202-.244-1.409-.733-.45-1.014-1.304-3.267-2.562-6.76-1.24-3.51-2.348-6.252-3.324-8.223v9.942c0 2.535.178 4.394.535 5.576-.338.15-.685.226-1.042.226-.544 0-.91-.122-1.098-.366-.188-.245-.282-.658-.282-1.24 0-.3.01-1.042.028-2.225.019-1.183.028-2.103.028-2.76V7.18c0-2.103-.178-3.756-.535-4.957.601-.15 1.146-.226 1.634-.226.788 0 1.455.451 2 1.352.732 1.277 1.473 2.835 2.225 4.676.75 1.84 1.333 3.398 1.746 4.675a301.888 301.888 0 0 1 1.802 5.492c.582-2.328 1.362-4.844 2.338-7.548.995-2.704 2.103-5.135 3.323-7.295.507-.901 1.193-1.352 2.056-1.352.639 0 1.165.075 1.578.226-.338 1.126-.507 3.22-.507 6.28Z" fill="#96855A"/>
    <path d="M29.531 18.388c0 .676-.535 1.296-1.605 1.86-1.07.544-2.394.816-3.971.816-2.648 0-4.77-.883-6.365-2.648-1.597-1.783-2.395-4.112-2.395-6.985 0-3.004.798-5.35 2.395-7.04 1.596-1.71 3.755-2.564 6.477-2.564 1.465 0 2.695.3 3.69.902.995.582 1.493 1.305 1.493 2.168 0 .77-.535 1.24-1.606 1.409-.356-.92-.92-1.606-1.69-2.056a4.63 4.63 0 0 0-2.45-.705c-1.765 0-3.21.705-4.337 2.113-1.108 1.39-1.662 3.126-1.662 5.21 0 2.404.563 4.422 1.69 6.056 1.127 1.614 2.694 2.422 4.703 2.422 1.503 0 2.714-.45 3.634-1.352-.038-2.347-.104-4.244-.198-5.69.32-.056.658-.084 1.014-.084.92 0 1.38.357 1.38 1.07l-.084 1.803a53.184 53.184 0 0 0-.113 3.295Z" fill="#C7B27D"/>
</svg>
