<svg width="41" height="40" viewBox="0 0 41 40" fill="none" xmlns="http://www.w3.org/2000/svg">
<path d="M40.0776 20.1617C40.0776 9.3427 31.3071 0.572204 20.4881 0.572204C9.66911 0.572203 0.898258 9.3427 0.898257 20.1617C0.898257 30.9807 9.66911 39.7516 20.4881 39.7516C31.3021 39.7394 40.0654 30.9761 40.0776 20.1617H40.0776ZM2.85746 20.1617C2.85746 10.4245 10.7509 2.53105 20.4881 2.53105C30.2253 2.53105 38.1188 10.4245 38.1188 20.1617C38.1188 29.8989 30.2253 37.7924 20.4881 37.7924C10.7556 37.7813 2.86858 29.8942 2.85746 20.1617Z" fill="#C7B27D"/>
<path d="M28.0816 17.8682C28.4377 17.4607 28.3961 16.8419 27.989 16.4858C27.5815 16.1299 26.9628 16.1715 26.6066 16.5787L20.4879 23.5718L14.3689 16.5783C14.0127 16.1708 13.394 16.1296 12.9869 16.4854C12.5794 16.8416 12.5378 17.4603 12.894 17.8678L19.7505 25.7036C19.9363 25.9163 20.2053 26.0382 20.4879 26.0382C20.7706 26.0382 21.0393 25.9163 21.2254 25.7036L28.0816 17.8682Z" fill="#C7B27D"/>
</svg>