<svg width="82" height="80" viewBox="0 0 82 80" fill="none" xmlns="http://www.w3.org/2000/svg">
<path d="M71.267 33.3204C71.239 33.3035 71.2096 33.2887 71.1794 33.2762L71.1527 33.2828L70.5721 32.9892C68.9691 32.1632 67.0238 32.4013 65.6673 33.5898C63.1767 35.6326 59.693 35.9525 56.872 34.3973C56.5279 34.2656 56.142 34.4381 56.0103 34.7823C55.9087 35.0481 55.9868 35.3489 56.2047 35.5317C57.5475 36.3253 59.0829 36.7341 60.6424 36.7129C60.936 36.7129 61.2363 36.7129 61.5299 36.6728C62.7133 36.5732 63.8664 36.2469 64.9266 35.7119H64.9867C65.9705 35.5499 66.9659 35.9266 67.5959 36.6995C67.7218 36.8675 67.9197 36.9664 68.1297 36.9664C68.274 36.9664 68.4147 36.9196 68.5301 36.833C68.8249 36.6118 68.8846 36.1935 68.6636 35.8987C68.1598 35.2389 67.4584 34.7573 66.6616 34.524C67.6046 33.7521 68.9167 33.6157 69.9982 34.177L70.5788 34.464C70.8946 34.654 71.3047 34.5521 71.4947 34.2363C71.6847 33.9205 71.5828 33.5104 71.267 33.3204Z" fill="#C7B27D" stroke="#1E1C22" stroke-width="0.3"/>
<path d="M70.5788 23.7602C63.285 21.7583 57.2324 23.0128 55.5507 26.8432C55.4004 27.1786 55.5495 27.5725 55.8844 27.7241C56.2214 27.8734 56.6156 27.7214 56.7649 27.3846C56.7651 27.3844 56.7651 27.3841 56.7652 27.3838C58.1666 24.234 63.6987 23.2731 70.2251 25.0482C70.5808 25.1458 70.9483 24.9367 71.0459 24.581C71.1437 24.2253 70.9345 23.8578 70.5788 23.7602Z" fill="#C7B27D" stroke="#1E1C22" stroke-width="0.3"/>
<path d="M43.3513 34.627C43.3494 34.6237 43.3474 34.6205 43.3456 34.6172C43.1531 34.3051 42.7448 34.2068 42.4314 34.397C39.5993 35.9607 36.0983 35.6297 33.6094 33.5628C32.2517 32.3967 30.3227 32.1698 28.7313 32.9889L28.1507 33.2825C27.8105 33.4242 27.6495 33.8149 27.7912 34.1551C27.9328 34.4952 28.3235 34.6562 28.6637 34.5146C28.6939 34.5021 28.7233 34.4872 28.7513 34.4704L29.3319 34.1834C30.4131 33.6202 31.7262 33.7568 32.6685 34.5304C31.8715 34.7633 31.17 35.245 30.6665 35.9051C30.4454 36.1999 30.5052 36.6183 30.8 36.8394C30.9154 36.926 31.0559 36.9728 31.2004 36.9728C31.4104 36.9728 31.6083 36.8739 31.7342 36.7059C32.3615 35.9377 33.3516 35.5636 34.3301 35.725H34.3901C35.4509 36.2576 36.604 36.5815 37.7868 36.6792C38.0804 36.6792 38.3807 36.7193 38.6744 36.7193C40.2319 36.7413 41.7654 36.3326 43.1054 35.5381C43.4248 35.3546 43.535 34.9467 43.3513 34.627Z" fill="#C7B27D" stroke="#1E1C22" stroke-width="0.3"/>
<path d="M43.7529 26.8437C43.7528 26.8434 43.7528 26.8432 43.7526 26.8429C42.0576 23.0125 36.0183 21.7779 28.7245 23.7599C28.3688 23.8575 28.1598 24.225 28.2574 24.5807C28.355 24.9364 28.7225 25.1454 29.0782 25.0478C35.6046 23.2727 41.1367 24.2337 42.5314 27.3834C42.6398 27.6248 42.8807 27.7792 43.1453 27.7772C43.2371 27.7778 43.3278 27.7596 43.4123 27.7238C43.7494 27.575 43.9019 27.1809 43.7529 26.8437Z" fill="#C7B27D" stroke="#1E1C22" stroke-width="0.3"/>
<path d="M57.1188 56.172C56.1068 54.414 54.5071 53.0693 52.6011 52.375C51.7978 52.0869 50.9072 52.1776 50.1787 52.6219C49.851 52.8049 49.452 52.8049 49.1243 52.6219C48.3938 52.1826 47.5046 52.0945 46.702 52.3816C44.7971 53.0743 43.1973 54.4165 42.1842 56.172C42.0649 56.3786 42.0649 56.6328 42.1842 56.8393C44.5792 60.9634 49.8639 62.3651 53.9879 59.9702C55.2859 59.2165 56.3651 58.1373 57.1188 56.8393C57.2381 56.6328 57.2381 56.3784 57.1188 56.172ZM49.6782 59.7956C47.2173 59.7961 44.9219 58.5567 43.5722 56.499C44.4322 55.1759 45.6995 54.1687 47.1824 53.6295C47.6078 53.4792 48.0783 53.5283 48.4637 53.763C49.2152 54.1969 50.1412 54.1969 50.8927 53.763C51.2781 53.5283 51.7486 53.4792 52.174 53.6295C53.6579 54.1669 54.9257 55.1746 55.7842 56.499C54.4345 58.5567 52.1391 59.7959 49.6782 59.7956Z" fill="#C7B27D" stroke="#1E1C22" stroke-width="0.3"/>
<path d="M52.8556 47.35C52.6057 47.1359 52.2373 47.1359 51.9874 47.35C50.7138 48.6253 48.6478 48.6266 47.3725 47.353C47.3715 47.352 47.3705 47.351 47.3695 47.35C47.0896 47.1102 46.6683 47.1428 46.4286 47.4227C46.2146 47.6726 46.2146 48.041 46.4286 48.2909C47.2904 49.1516 48.4604 49.6321 49.6784 49.6256C50.8965 49.6321 52.0665 49.1516 52.9283 48.2909C53.168 48.011 53.1355 47.5897 52.8556 47.35Z" fill="#C7B27D" stroke="#1E1C22" stroke-width="0.3"/>
<path d="M70.9192 17.4405C68.757 15.7255 61.5767 10.2268 59.4946 8.64523C59.7749 8.32492 60.0485 7.97791 60.3087 7.65092C61.8369 5.64896 63.325 1.64503 63.3851 1.4782C63.4839 1.12318 63.276 0.755156 62.921 0.656559C62.6065 0.56914 62.275 0.721956 62.1372 1.01775C62.1372 1.05779 60.6491 5.02168 59.2477 6.83679C55.3439 11.9285 49.3847 15.2651 41.537 16.6798L26.8025 19.7228C16.6948 21.802 10.1862 31.6813 12.2653 41.7893C12.8517 44.6399 14.0957 47.3142 15.8985 49.5987L15.9385 49.6521C17.1998 51.1403 18.5144 52.6217 19.7823 54.0565C26.3754 61.5038 32.6016 68.5373 29.0047 74.3097C28.4842 75.1438 25.9751 77.5061 22.9321 77.326C22.5635 77.3038 22.2469 77.5847 22.2247 77.9532C22.2025 78.3218 22.4835 78.6384 22.852 78.6606C22.9921 78.6606 23.1323 78.6606 23.2657 78.6606C25.9919 78.556 28.5209 77.2115 30.1325 75.0103C34.2565 68.3905 27.7101 60.9966 20.79 53.1689C19.5221 51.7408 18.2141 50.2661 16.9529 48.7646C11.0235 41.237 12.3192 30.3282 19.8465 24.3987C21.195 23.3365 22.6935 22.4803 24.2934 21.8582V42.5452C24.3049 48.026 26.5796 53.2588 30.5796 57.006L42.865 68.4706C44.3716 69.8721 46.3527 70.6517 48.4104 70.6527H50.8928C52.9669 70.6551 54.964 69.8676 56.4783 68.4506L64.1859 61.3102V64.3199C64.1759 69.6105 65.8208 74.7719 68.8905 79.081C69.015 79.2604 69.2193 79.3676 69.4377 79.368C69.575 79.369 69.7088 79.3244 69.8181 79.2412C70.1175 79.0288 70.1891 78.6142 69.9782 78.3136C67.0669 74.2217 65.5082 69.3218 65.5205 64.2998V60.4627C65.5174 60.3446 65.4827 60.2295 65.4204 60.1291L68.757 57.0127C72.7551 53.2648 75.0275 48.0319 75.0365 42.5518V23.7734C80.4098 31.5597 81.1525 41.6429 76.9784 50.1326C76.8159 50.4634 76.9524 50.8633 77.2832 51.0258C77.2839 51.0261 77.2847 51.0265 77.2854 51.0268C77.3778 51.0685 77.4776 51.0912 77.579 51.0935C77.8343 51.094 78.0673 50.9491 78.1796 50.7198C83.8318 39.2886 80.7755 25.2749 70.9192 17.4405ZM73.7086 22.2452V42.5518C73.7019 47.6617 71.5811 52.541 67.8495 56.0317L55.5641 67.503C54.2975 68.688 52.6274 69.3466 50.8928 69.3448H48.4104C46.6759 69.3466 45.0057 68.688 43.7392 67.503L31.4538 56.0317C27.7203 52.5416 25.5972 47.6625 25.588 42.5518V21.4111C26.0773 21.2643 26.5711 21.1375 27.0695 21.0307L41.7906 17.9944C48.9042 16.6598 54.5431 13.877 58.5937 9.63954C60.5356 11.121 67.9362 16.7532 70.0917 18.4882C71.4293 19.5528 72.6547 20.7513 73.7486 22.0651C73.7236 22.1223 73.7077 22.183 73.7019 22.2452H73.7086Z" fill="#C7B27D" stroke="#1E1C22" stroke-width="0.3"/>
<path d="M17.1796 4.52124C16.89 4.29568 16.4725 4.3464 16.2453 4.63468C12.2337 9.95657 10.667 16.7301 11.9344 23.273C11.9901 23.5966 12.2733 23.8317 12.6017 23.8268H12.7219C13.0847 23.7626 13.3268 23.4163 13.2626 23.0533C13.2626 23.0531 13.2626 23.0529 13.2624 23.0528C12.0485 16.8809 13.5138 10.4838 17.293 5.45549C17.5187 5.16587 17.468 4.74829 17.1796 4.52124Z" fill="#C7B27D" stroke="#1E1C22" stroke-width="0.3"/>
<path d="M16.882 18.3492C16.8811 18.3488 16.8805 18.3485 16.8796 18.3482C16.539 18.2077 16.1488 18.37 16.0083 18.7107C16.005 18.7189 16.0018 18.727 15.9988 18.7352C15.3396 20.3208 14.8411 21.9684 14.5107 23.6534C14.4413 24.0144 14.677 24.3636 15.0378 24.4341C15.0799 24.4406 15.1226 24.4406 15.1646 24.4341C15.4888 24.44 15.7704 24.2119 15.8319 23.8936C16.1411 22.2927 16.6129 20.7275 17.24 19.2223C17.3821 18.8823 17.222 18.4913 16.882 18.3492Z" fill="#C7B27D" stroke="#1E1C22" stroke-width="0.3"/>
<path d="M50.0943 7.36675C49.8636 7.0793 49.4435 7.03342 49.1562 7.26431C49.1357 7.28083 49.1162 7.29851 49.0977 7.31737V7.29735C46.5483 9.54989 43.4176 11.0412 40.0622 11.6016C39.6936 11.6348 39.4217 11.9604 39.4549 12.329C39.4881 12.6975 39.8137 12.9694 40.1823 12.9362H40.3091C43.9074 12.3321 47.263 10.7272 49.9919 8.305C50.2792 8.07411 50.325 7.6542 50.0943 7.36675Z" fill="#C7B27D" stroke="#1E1C22" stroke-width="0.3"/>
<path d="M53.4222 2.73275C53.1016 2.5484 52.6923 2.65901 52.508 2.97966L52.5213 2.99301C52.1429 3.65883 51.724 4.30062 51.2668 4.91489C51.0457 5.20968 51.1054 5.62793 51.4002 5.84914C51.5157 5.93573 51.6563 5.98261 51.8006 5.98261C52.0118 5.98111 52.2098 5.87951 52.3345 5.70901C52.8236 5.05136 53.2694 4.36252 53.6691 3.64698C53.8535 3.32633 53.7428 2.91693 53.4222 2.73275Z" fill="#C7B27D" stroke="#1E1C22" stroke-width="0.3"/>
<path d="M15.1044 61.9376L8.70479 59.1548C5.25474 57.6267 3.0459 55.1509 2.31852 52.0011C2.23561 51.6418 1.87709 51.4177 1.51774 51.5006C1.15838 51.5836 0.934331 51.9421 1.01725 52.3014C1.59114 54.7972 3.29949 58.2206 8.16426 60.376L14.5705 63.1654C21.444 66.1684 24.6604 69.6585 24.1199 73.5423C24.0689 73.9073 24.3233 74.2446 24.6883 74.2957C24.6901 74.296 24.692 74.2962 24.6938 74.2964H24.7872C25.1244 74.2992 25.4107 74.0501 25.4546 73.7158C26.1219 69.1646 22.6051 65.2008 15.1044 61.9376Z" fill="#C7B27D" stroke="#1E1C22" stroke-width="0.3"/>
</svg>