<svg width="15" height="14" viewBox="0 0 15 14" fill="none" xmlns="http://www.w3.org/2000/svg">
<path d="M0 7.24973C0 7.05084 0.0790107 6.86009 0.21965 6.71945C0.36029 6.57881 0.551038 6.4998 0.749933 6.4998H12.4384L7.71831 1.78122C7.57749 1.64041 7.49838 1.44942 7.49838 1.25027C7.49838 1.05112 7.57749 0.860135 7.71831 0.719318C7.85913 0.5785 8.05012 0.49939 8.24926 0.49939C8.44841 0.49939 8.6394 0.5785 8.78022 0.719318L14.7797 6.71878C14.8495 6.78844 14.9049 6.8712 14.9427 6.96231C14.9805 7.05342 15 7.15109 15 7.24973C15 7.34838 14.9805 7.44605 14.9427 7.53716C14.9049 7.62827 14.8495 7.71102 14.7797 7.78069L8.78022 13.7802C8.71049 13.8499 8.62771 13.9052 8.53661 13.9429C8.44551 13.9807 8.34787 14.0001 8.24926 14.0001C8.15066 14.0001 8.05301 13.9807 7.96191 13.9429C7.87081 13.9052 7.78804 13.8499 7.71831 13.7802C7.64858 13.7104 7.59328 13.6276 7.55554 13.5365C7.5178 13.4454 7.49838 13.3478 7.49838 13.2492C7.49838 13.1506 7.5178 13.0529 7.55554 12.9618C7.59328 12.8707 7.64858 12.788 7.71831 12.7182L12.4384 7.99967H0.749933C0.551038 7.99967 0.36029 7.92066 0.21965 7.78002C0.0790107 7.63938 0 7.44863 0 7.24973Z" fill="#fff"/>
</svg>