<svg width="15" height="17" viewBox="0 0 15 17" fill="none" xmlns="http://www.w3.org/2000/svg">
<path d="M7.31214 17C7.10541 17.0003 6.90065 16.9598 6.70959 16.8808C6.51852 16.8019 6.34489 16.6861 6.19864 16.5399L2.14203 12.4833C1.46076 11.8058 0.920651 11 0.552974 10.1123C0.185296 9.22467 -0.00264649 8.27291 2.81507e-05 7.31214C-0.00260002 6.35169 0.185372 5.40026 0.553055 4.51297C0.920738 3.62568 1.46082 2.82016 2.14203 2.14308C2.81929 1.46175 3.62496 0.921523 4.51241 0.553666C5.39987 0.185808 6.35147 -0.0023696 7.31214 2.52779e-05C8.27274 -0.00250875 9.2243 0.185502 10.1117 0.553175C10.9992 0.920848 11.8049 1.46088 12.4823 2.14202C13.1635 2.8191 13.7035 3.62462 14.0712 4.51191C14.4389 5.3992 14.6269 6.35063 14.6243 7.31108C14.6269 8.27185 14.439 9.22361 14.0713 10.1113C13.7036 10.9989 13.1635 11.8048 12.4823 12.4823L8.42564 16.5389C8.27948 16.6852 8.10589 16.8012 7.91482 16.8803C7.72375 16.9595 7.51895 17.0001 7.31214 17ZM7.31214 1.06252C6.49112 1.06031 5.67781 1.22097 4.91929 1.53521C4.16078 1.84945 3.47213 2.31102 2.89321 2.89321C1.72313 4.06619 1.06603 5.65535 1.06603 7.31214C1.06603 8.96893 1.72313 10.5581 2.89321 11.7311L6.94983 15.7877C7.0463 15.8831 7.17648 15.9366 7.31214 15.9366C7.4478 15.9366 7.57799 15.8831 7.67445 15.7877L11.7311 11.7311C12.9012 10.5581 13.5583 8.96893 13.5583 7.31214C13.5583 5.65535 12.9012 4.06619 11.7311 2.89321C11.1522 2.31102 10.4635 1.84945 9.70499 1.53521C8.94648 1.22097 8.13317 1.06031 7.31214 1.06252ZM7.31214 10.7939C6.38906 10.7928 5.5041 10.4256 4.85138 9.77291C4.19865 9.12019 3.83146 8.23523 3.83033 7.31214C3.83005 6.38813 4.19663 5.50181 4.8495 4.84794C5.50237 4.19407 6.38814 3.82615 7.31214 3.82502C8.23615 3.82615 9.12191 4.19407 9.77479 4.84794C10.4277 5.50181 10.7942 6.38813 10.794 7.31214C10.7928 8.23523 10.4256 9.12019 9.77291 9.77291C9.12019 10.4256 8.23523 10.7928 7.31214 10.7939ZM7.31214 4.88752C6.67058 4.88836 6.05555 5.14367 5.60199 5.59742C5.14843 6.05118 4.8934 6.66632 4.89283 7.30789C4.89255 7.95001 5.14722 8.56597 5.60086 9.02041C6.05451 9.47486 6.67003 9.7306 7.31214 9.73145C7.95352 9.73061 8.5684 9.47544 9.02192 9.02192C9.47545 8.56839 9.73061 7.95352 9.73145 7.31214C9.73202 6.66984 9.47748 6.0536 9.0238 5.59893C8.57012 5.14425 7.95444 4.88836 7.31214 4.88752Z" fill="#AF995E"/>
</svg>
