<svg width="74" height="89" viewBox="0 0 74 89" fill="none" xmlns="http://www.w3.org/2000/svg">
<path d="M71.2808 41.1574L60.2575 29.2684C58.9727 27.8829 57.1455 27.0882 55.2442 27.0882H18.7553C16.854 27.0882 15.0268 27.8829 13.7421 29.2684L2.71871 41.1574C0.867441 43.1539 0.774112 46.245 2.5018 48.3473L34.1601 86.8687C34.8581 87.7178 35.893 88.2048 36.9997 88.2048C38.1064 88.2048 39.1412 87.7178 39.8392 86.8687L71.4976 48.3473C73.2254 46.2448 73.1321 43.1539 71.2808 41.1574ZM55.852 29.6817L52.9177 38.191C52.6879 38.8573 53.048 39.5815 53.7219 39.8087C53.8598 39.8551 54 39.8772 54.1379 39.8772C54.6743 39.8772 55.1751 39.5436 55.3578 39.0136L58.1845 30.8163C58.2434 30.8728 58.3012 30.9306 58.3569 30.9906L69.3802 42.8795C69.5392 43.0508 69.6712 43.2384 69.7817 43.4353H52.724L39.93 29.6368H55.244C55.4487 29.637 55.6517 29.6526 55.852 29.6817ZM49.2267 43.4353H24.7727L36.9997 30.2486L49.2267 43.4353ZM34.0694 29.637L22.4524 42.166L18.1474 29.6817C18.3476 29.6528 18.5506 29.637 18.7552 29.637H34.0694ZM15.6425 30.9908C15.6982 30.9306 15.7559 30.8729 15.8149 30.8164L20.1663 43.4355H4.21763C4.32814 43.2387 4.46014 43.0511 4.61913 42.8797L15.6425 30.9908ZM4.05607 45.9842H50.2305L36.9997 84.3534L25.252 50.2851C25.0224 49.619 24.29 49.2628 23.616 49.49C22.942 49.7172 22.582 50.4414 22.8118 51.1075L33.4525 81.9658L4.5026 46.74C4.31164 46.5075 4.16452 46.2518 4.05607 45.9842ZM40.5467 81.9658L52.9542 45.9842H69.9433C69.8349 46.2518 69.6877 46.5075 69.4968 46.7398L40.5467 81.9658Z" fill="#C7B27D" stroke="#17161A" stroke-width="1.5"/>
<path d="M36.9995 21.4633C37.7114 21.4633 38.2886 20.8927 38.2886 20.1888V2.47925C38.2886 1.77543 37.7114 1.20483 36.9995 1.20483C36.2876 1.20483 35.7104 1.77543 35.7104 2.47925V20.1888C35.7104 20.8927 36.2876 21.4633 36.9995 21.4633Z" fill="#C7B27D" stroke="#17161A" stroke-width="1.5"/>
<path d="M23.4455 22.121C23.6713 22.5676 24.1264 22.8259 24.5994 22.8259C24.7931 22.8259 24.9898 22.7825 25.1749 22.6909C25.8117 22.3761 26.0698 21.6107 25.7513 20.9812L20.2397 10.0829C19.9213 9.45334 19.1471 9.19812 18.5103 9.51299C17.8735 9.82785 17.6153 10.5932 17.9338 11.2227L23.4455 22.121Z" fill="#C7B27D" stroke="#17161A" stroke-width="1.5"/>
<path d="M48.8247 22.6909C49.0098 22.7825 49.2064 22.8259 49.4001 22.8259C49.873 22.8259 50.3283 22.5676 50.5541 22.121L56.0658 11.2227C56.3843 10.5932 56.1261 9.82785 55.4893 9.51299C54.8525 9.19812 54.0784 9.45334 53.7599 10.0829L48.2482 20.9812C47.9298 21.6107 48.1879 22.3762 48.8247 22.6909Z" fill="#C7B27D" stroke="#17161A" stroke-width="1.5"/>
</svg>