<svg width="8" height="4" viewBox="0 0 8 4" fill="none" xmlns="http://www.w3.org/2000/svg">
<path d="M7.89562 0.6815C7.8959 0.765747 7.87731 0.848988 7.8412 0.925105C7.80509 1.00122 7.75239 1.06828 7.68696 1.12136L4.30343 3.8451C4.20253 3.92805 4.07596 3.97339 3.94534 3.97339C3.81472 3.97339 3.68816 3.92805 3.58725 3.8451L0.203718 1.02549C0.0885559 0.929773 0.0161345 0.792226 0.00238624 0.64311C-0.011362 0.493994 0.0346889 0.345525 0.130408 0.230362C0.226128 0.1152 0.363675 0.0427787 0.512791 0.0290303C0.661906 0.0152822 0.810376 0.0613329 0.925538 0.157052L3.94816 2.67778L6.97078 0.241641C7.05356 0.172683 7.15436 0.128879 7.26125 0.115413C7.36814 0.101946 7.47665 0.119381 7.57394 0.165654C7.67123 0.211927 7.75323 0.285102 7.81024 0.376519C7.86725 0.467937 7.89687 0.573772 7.89562 0.6815Z" fill="white"/>
</svg>