<svg width="34" height="30" viewBox="0 0 34 30" fill="none" xmlns="http://www.w3.org/2000/svg">
<path d="M0.830078 5.83268C0.830078 4.43734 1.38438 3.09914 2.37103 2.11249C3.35769 1.12583 4.69588 0.571533 6.09123 0.571533H27.9452C28.6361 0.571533 29.3203 0.707617 29.9586 0.972014C30.5969 1.23641 31.1769 1.62394 31.6654 2.11249C32.154 2.60103 32.5415 3.18102 32.8059 3.81933C33.0703 4.45764 33.2064 5.14178 33.2064 5.83268V24.4491C33.2064 25.14 33.0703 25.8241 32.8059 26.4624C32.5415 27.1007 32.154 27.6807 31.6654 28.1693C31.1769 28.6578 30.5969 29.0453 29.9586 29.3097C29.3203 29.5741 28.6361 29.7102 27.9452 29.7102H6.09123C4.69588 29.7102 3.35769 29.1559 2.37103 28.1693C1.38438 27.1826 0.830078 25.8444 0.830078 24.4491V5.83268ZM12.9712 10.906V19.3741C12.9712 20.2968 13.9587 20.8828 14.7681 20.4393L22.5157 16.2044C22.7069 16.0999 22.8664 15.9458 22.9775 15.7584C23.0886 15.571 23.1472 15.3571 23.1472 15.1392C23.1472 14.9214 23.0886 14.7075 22.9775 14.5201C22.8664 14.3327 22.7069 14.1786 22.5157 14.0741L14.7681 9.84087C14.5832 9.7397 14.3751 9.68841 14.1644 9.69204C13.9537 9.69567 13.7475 9.7541 13.5662 9.86157C13.3849 9.96905 13.2347 10.1219 13.1304 10.305C13.026 10.4881 12.9712 10.6953 12.9712 10.906Z" fill="#AF995E"/>
</svg>
