<svg width="13" height="11" viewBox="0 0 13 11" fill="none" xmlns="http://www.w3.org/2000/svg">
<path d="M0.996094 1.95C0.996094 1.43283 1.20154 0.936838 1.56724 0.571142C1.93293 0.205446 2.42892 0 2.94609 0H11.0461C11.3022 0 11.5557 0.0504382 11.7923 0.148435C12.0289 0.246432 12.2439 0.390067 12.425 0.571142C12.606 0.752216 12.7497 0.967182 12.8477 1.20377C12.9457 1.44035 12.9961 1.69392 12.9961 1.95V8.85C12.9961 9.10608 12.9457 9.35965 12.8477 9.59623C12.7497 9.83282 12.606 10.0478 12.425 10.2289C12.2439 10.4099 12.0289 10.5536 11.7923 10.6516C11.5557 10.7496 11.3022 10.8 11.0461 10.8H2.94609C2.42892 10.8 1.93293 10.5946 1.56724 10.2289C1.20154 9.86316 0.996094 9.36717 0.996094 8.85V1.95ZM5.49609 3.8304V6.969C5.49609 7.311 5.86209 7.5282 6.16209 7.3638L9.03369 5.7942C9.10454 5.75545 9.16366 5.69835 9.20484 5.62888C9.24602 5.55942 9.26775 5.48015 9.26775 5.3994C9.26775 5.31865 9.24602 5.23938 9.20484 5.16992C9.16366 5.10045 9.10454 5.04335 9.03369 5.0046L6.16209 3.4356C6.09356 3.3981 6.01645 3.37909 5.93834 3.38044C5.86024 3.38178 5.78382 3.40344 5.71663 3.44327C5.64943 3.48311 5.59376 3.53975 5.55509 3.60763C5.51642 3.67551 5.49609 3.75228 5.49609 3.8304Z" fill="#756A4E"/>
</svg>
