<svg width="59" height="59" viewBox="0 0 59 59" fill="none" xmlns="http://www.w3.org/2000/svg">
<g clip-path="url(#clip0_106_128)">
<path fill-rule="evenodd" clip-rule="evenodd" d="M37.7947 18.2767C38.9208 19.4436 39.3316 21.0831 39.1382 22.6682C38.8577 24.9691 38.1937 27.1234 37.4145 29.2951C36.5809 31.619 35.7349 33.938 34.8845 36.2556C33.5244 39.9642 32.1535 43.6687 30.8083 47.3827C30.4741 48.3051 30.2357 49.2901 30.1405 50.2646C30.0368 51.3257 30.8 51.8479 31.7583 51.3771C32.5258 50.9998 33.2729 50.4862 33.8739 49.8785C34.8557 48.8856 35.8333 47.888 36.7872 46.8676C37.2639 46.3574 37.7355 45.8414 38.198 45.3177C38.5665 44.9003 38.9453 44.2723 39.4511 44.0185C40.4089 43.5378 41.1481 44.7205 40.9747 45.5486C40.8091 46.3406 40.2638 47.0354 39.7621 47.6676L39.7276 47.7111C39.6821 47.7684 39.6367 47.8257 39.5914 47.8832C37.9053 50.0279 36.0563 52.0958 33.9586 53.8439C31.8965 55.5577 29.6071 57.0157 27.0928 57.961C26.2739 58.2688 25.4348 58.5219 24.5818 58.7158C22.9352 59.0905 21.1156 59.0626 19.4329 58.8183C18.199 58.6392 17.0899 57.8521 16.5669 56.707C15.6591 54.7188 16.291 52.2637 16.7604 50.24C17.3354 47.7625 18.1985 45.4036 19.0802 43.0304L19.1472 42.8501L19.1808 42.7599L19.2478 42.5795L19.3149 42.3991C20.3367 39.6483 21.3871 36.9085 22.4408 34.1699C23.4025 31.6717 24.3682 29.1753 25.3199 26.6735C25.3925 26.4825 25.4736 26.2928 25.5555 26.1032L25.5862 26.0322C25.7963 25.5464 26.0051 25.0606 26.0833 24.5543C26.271 23.3394 25.3948 22.2577 24.1786 22.958C22.0761 24.1688 20.5016 25.9692 18.9412 27.7808L18.7514 28.0011C18.2665 28.5642 17.7809 29.126 17.2793 29.6693C16.7849 30.2049 16.1963 30.869 15.3462 30.2553C14.439 29.6005 14.7081 28.7607 15.2237 28.0494C18.087 24.0982 21.5249 20.4021 26.0053 18.3149C27.8777 17.4426 30.4952 16.5546 32.9465 16.5255C34.7841 16.5037 36.5283 16.9646 37.7947 18.2767ZM40.623 0.455622C42.98 1.37276 44.2503 3.422 44.25 6.30698C44.2498 11.506 38.634 15.062 33.9394 12.8355C31.5132 11.6849 30.3331 8.95746 30.9213 5.85996C31.7354 1.57023 36.5687 -1.1218 40.623 0.455622Z" fill="#C7B07D"/>
</g>
<defs>
<clipPath id="clip0_106_128">
<rect width="59" height="59" fill="white"/>
</clipPath>
</defs>
</svg>
