<svg width="27" height="35" viewBox="0 0 27 35" fill="none" xmlns="http://www.w3.org/2000/svg">
<path d="M22.2964 33.5754H4.70332C3.82811 33.5754 2.98874 33.2277 2.36987 32.6088C1.751 31.9899 1.40332 31.1506 1.40332 30.2754V19.2719C1.40332 18.3967 1.751 17.5573 2.36987 16.9385C2.98874 16.3196 3.82811 15.9719 4.70332 15.9719H22.2964C23.1717 15.9719 24.011 16.3196 24.6299 16.9385C25.2488 17.5573 25.5964 18.3967 25.5964 19.2719V30.2754C25.5964 31.1506 25.2488 31.9899 24.6299 32.6088C24.011 33.2277 23.1717 33.5754 22.2964 33.5754ZM4.70332 18.1788C4.41245 18.1788 4.13334 18.2936 3.9267 18.4983C3.72005 18.703 3.6026 18.9811 3.59988 19.2719V30.2754C3.59988 30.568 3.71614 30.8487 3.92307 31.0556C4.13001 31.2625 4.41067 31.3788 4.70332 31.3788H22.2964C22.5891 31.3788 22.8698 31.2625 23.0767 31.0556C23.2836 30.8487 23.3999 30.568 23.3999 30.2754V19.2719C23.3999 18.9793 23.2836 18.6986 23.0767 18.4917C22.8698 18.2847 22.5891 18.1685 22.2964 18.1685L4.70332 18.1788Z" fill="white" stroke="#AF995E"/>
<path d="M13.4999 26.996C13.2073 26.996 12.9266 26.8797 12.7197 26.6728C12.5127 26.4659 12.3965 26.1852 12.3965 25.8925V23.6547C12.423 23.3818 12.5501 23.1285 12.7531 22.9442C12.9562 22.7599 13.2206 22.6578 13.4948 22.6578C13.769 22.6578 14.0333 22.7599 14.2364 22.9442C14.4394 23.1285 14.5666 23.3818 14.593 23.6547V25.8925C14.5931 26.1834 14.4782 26.4625 14.2735 26.6692C14.0688 26.8758 13.7908 26.9933 13.4999 26.996Z" fill="white" stroke="#AF995E"/>
<path d="M20.1 13.7754C19.9551 13.7754 19.8116 13.7468 19.6778 13.6914C19.5439 13.6359 19.4223 13.5546 19.3198 13.4522C19.2173 13.3497 19.1361 13.2281 19.0806 13.0942C19.0251 12.9603 18.9966 12.8168 18.9966 12.6719V8.26847C18.9966 6.8107 18.4175 5.41262 17.3867 4.38182C16.3559 3.35101 14.9578 2.77191 13.5 2.77191C12.0423 2.77191 10.6442 3.35101 9.61338 4.38182C8.58258 5.41262 8.00348 6.8107 8.00348 8.26847V12.6719C8.01834 12.8251 8.00099 12.9797 7.95256 13.1257C7.90413 13.2718 7.82568 13.4061 7.72225 13.5201C7.61882 13.634 7.4927 13.7251 7.35198 13.7874C7.21127 13.8497 7.05909 13.8819 6.9052 13.8819C6.7513 13.8819 6.59912 13.8497 6.45841 13.7874C6.3177 13.7251 6.19157 13.634 6.08814 13.5201C5.98471 13.4061 5.90626 13.2718 5.85783 13.1257C5.8094 12.9797 5.79205 12.8251 5.80691 12.6719V8.26847C5.80691 6.22676 6.61798 4.26867 8.06169 2.82497C9.5054 1.38126 11.4635 0.57019 13.5052 0.57019C15.5469 0.57019 17.505 1.38126 18.9487 2.82497C20.3924 4.26867 21.2035 6.22676 21.2035 8.26847V12.6719C21.2035 12.8168 21.1749 12.9603 21.1195 13.0942C21.064 13.2281 20.9828 13.3497 20.8803 13.4522C20.7778 13.5546 20.6562 13.6359 20.5223 13.6914C20.3884 13.7468 20.2449 13.7754 20.1 13.7754Z" fill="white" stroke="#AF995E"/>
</svg>
