<svg width="17" height="17" viewBox="0 0 17 17" fill="none" xmlns="http://www.w3.org/2000/svg">
<g clip-path="url(#clip0_7_164)">
<path d="M8.5 15.5834C10.3923 15.5834 12.1709 14.8467 13.509 13.5086L12.507 12.5071C11.4368 13.5774 10.0137 14.1667 8.5 14.1667C5.37555 14.1667 2.83334 11.6245 2.83334 8.50002C2.83334 5.37556 5.37555 2.83335 8.5 2.83335C11.6245 2.83335 14.1667 5.37556 14.1667 8.50002C14.1667 9.28131 13.5313 9.91669 12.75 9.91669C11.9687 9.91669 11.3333 9.28131 11.3333 8.50002V5.66669H9.91667V6.04883C9.49946 5.80729 9.01673 5.66669 8.5 5.66669C6.9353 5.66669 5.66667 6.93531 5.66667 8.50002C5.66667 10.0647 6.9353 11.3334 8.5 11.3334C9.34788 11.3334 10.1065 10.959 10.6261 10.369C11.1456 10.9586 11.9039 11.3334 12.75 11.3334C14.3122 11.3334 15.5833 10.0622 15.5833 8.50002C15.5833 4.59427 12.4058 1.41669 8.5 1.41669C4.59425 1.41669 1.41667 4.59427 1.41667 8.50002C1.41667 12.4058 4.59425 15.5834 8.5 15.5834ZM8.5 9.91669C7.71871 9.91669 7.08334 9.28131 7.08334 8.50002C7.08334 7.71873 7.71871 7.08335 8.5 7.08335C9.2813 7.08335 9.91667 7.71873 9.91667 8.50002C9.91667 9.28131 9.2813 9.91669 8.5 9.91669Z" fill="#AF995E"/>
</g>
<defs>
<clipPath id="clip0_7_164">
<rect width="17" height="17" fill="white"/>
</clipPath>
</defs>
</svg>
