<svg width="1900" height="2707" viewBox="0 0 1900 2707" fill="none" xmlns="http://www.w3.org/2000/svg">
<g filter="url(#filter0_f_6_11)">
<path d="M959.097 999.555C959.097 1170.77 820.297 1309.57 649.079 1309.57C477.86 1309.57 339.06 1170.77 339.06 999.555C339.06 828.336 477.86 689.536 649.079 689.536C820.297 689.536 959.097 828.336 959.097 999.555Z" fill="#161338" fill-opacity="0.5"/>
</g>
<g filter="url(#filter1_f_6_11)">
<path d="M195.797 1168.85C195.797 1369.4 134.018 1531.98 57.8087 1531.98C-18.4002 1531.98 -80.1797 1369.4 -80.1797 1168.85C-80.1797 968.29 -18.4002 805.708 57.8087 805.708C134.018 805.708 195.797 968.29 195.797 1168.85Z" fill="#2F1338"/>
</g>
<g filter="url(#filter2_f_6_11)">
<path d="M254.345 961.472C254.345 1216.07 175.918 1422.46 79.1726 1422.46C-17.5725 1422.46 -96 1216.07 -96 961.472C-96 706.873 -17.5725 500.48 79.1726 500.48C175.918 500.48 254.345 706.873 254.345 961.472Z" fill="#665C41" fill-opacity="0.8"/>
</g>
<g filter="url(#filter3_f_6_11)">
<path d="M206.668 2146.06C206.668 2207.33 141.713 2257 61.5865 2257C-18.5399 2257 -83.4951 2207.33 -83.4951 2146.06C-83.4951 2084.8 -18.5399 2035.13 61.5865 2035.13C141.713 2035.13 206.668 2084.8 206.668 2146.06Z" fill="#240C43"/>
</g>
<path d="M876.686 2408.98C1055.66 2585.87 998.86 2903.27 706.098 3007.18C416.862 3108.32 130.816 3002.03 89.7484 2885.27C45.7672 2767.26 186.707 2584.19 339.262 2414.9C490.277 2253.08 697.545 2229.26 876.686 2408.98Z" stroke="#211F25" stroke-miterlimit="10" stroke-linecap="round" stroke-linejoin="round"/>
<path d="M830.141 2461.46C972.053 2612.19 918.538 2870.63 678.705 2962.27C441.385 3053.19 199.873 2974.6 158.301 2868.37C115.229 2760.81 228.747 2598.69 366.655 2459.81C504.268 2325.49 688.143 2309.32 830.141 2461.46Z" stroke="#211F25" stroke-miterlimit="10" stroke-linecap="round" stroke-linejoin="round"/>
<path d="M771.52 2520.91C873.754 2639.68 826.645 2834.42 645.779 2910.31C466.329 2986.11 276.972 2934.48 237.747 2843.72C197.887 2751.86 282.126 2617.63 399.032 2512.09C516.108 2409.37 669.201 2400.73 771.52 2520.91Z" stroke="#211F25" stroke-miterlimit="10" stroke-linecap="round" stroke-linejoin="round"/>
<path d="M724.698 2564.04C800.176 2658.01 760.026 2807.77 621.237 2870.34C483.315 2933.14 334.119 2897.82 298.338 2821.91C262.24 2745.44 325.982 2634.01 424.44 2552.29C522.433 2472.3 648.586 2468.97 724.698 2564.04Z" stroke="#211F25" stroke-miterlimit="10" stroke-linecap="round" stroke-linejoin="round"/>
<path d="M660.544 2616.44C706.563 2678.4 676.79 2773.88 588.544 2817.51C500.614 2861.69 402.116 2843.2 374.763 2789.49C346.545 2735.54 387.005 2657.31 457.134 2605.12C526.714 2553.24 614.526 2554.49 660.544 2616.44Z" stroke="#211F25" stroke-miterlimit="10" stroke-linecap="round" stroke-linejoin="round"/>
<path d="M593.624 2665.32C614.194 2695.88 598.199 2741.7 556.166 2765.24C513.817 2788.22 465.444 2781.76 448.97 2753.23C432.496 2724.7 451.575 2682.95 489.511 2657.39C526.898 2632.15 573.053 2634.77 593.624 2665.32Z" stroke="#211F25" stroke-miterlimit="10" stroke-linecap="round" stroke-linejoin="round"/>
<path d="M667.197 1592.1C832.498 1770.41 576.733 2079.06 92.2893 2171.9C-385.496 2262.15 -745.719 2149.66 -742.189 2034.27C-742.242 1917.57 -436.61 1742.78 -121.502 1581.82C187.288 1428.11 503.186 1411.02 667.197 1592.1Z" stroke="#211F25" stroke-miterlimit="10" stroke-linecap="round" stroke-linejoin="round"/>
<path d="M570.604 1642.02C695.98 1793.64 477.104 2044.74 76.6966 2127.17C-319.648 2208.97 -629.857 2124.91 -632.799 2019.79C-637.208 1913.34 -383.061 1758.22 -105.909 1626.55C168.33 1499.32 445.874 1489.02 570.604 1642.02Z" stroke="#211F25" stroke-miterlimit="10" stroke-linecap="round" stroke-linejoin="round"/>
<path d="M452.568 1698.4C537.349 1817.58 362.502 2006.59 56.853 2075.38C-246.683 2144.13 -495.334 2087.98 -503.268 1998.07C-511.53 1907.06 -315.349 1778.33 -87.0404 1678.63C139.977 1581.7 368.433 1577.83 452.568 1698.4Z" stroke="#211F25" stroke-miterlimit="10" stroke-linecap="round" stroke-linejoin="round"/>
<path d="M360.662 1739.17C419.832 1833.31 279.643 1978.53 42.7402 2035.56C-193.024 2092.84 -391.861 2053.85 -402.837 1978.55C-413.977 1902.7 -260.168 1795.66 -71.7873 1718.7C114.972 1643.42 301.164 1643.94 360.662 1739.17Z" stroke="#211F25" stroke-miterlimit="10" stroke-linecap="round" stroke-linejoin="round"/>
<path d="M238.375 1788.49C271.911 1850.45 176.432 1942.91 23.7068 1982.93C-128.854 2023.5 -262.751 2002.48 -273.493 1949.14C-285.375 1895.55 -183.661 1820.27 -52.7545 1771.33C77.1773 1722.68 204.84 1726.53 238.375 1788.49Z" stroke="#211F25" stroke-miterlimit="10" stroke-linecap="round" stroke-linejoin="round"/>
<path d="M113.963 1834.28C127.396 1864.78 79.0807 1909.1 4.83768 1930.85C-69.5697 1952.06 -136.753 1944.3 -145.301 1915.91C-153.849 1887.51 -103.244 1847.27 -33.8861 1823.41C34.4971 1799.85 100.53 1803.79 113.963 1834.28Z" stroke="#211F25" stroke-miterlimit="10" stroke-linecap="round" stroke-linejoin="round"/>
<defs>
<filter id="filter0_f_6_11" x="-160.94" y="189.536" width="1620.04" height="1620.04" filterUnits="userSpaceOnUse" color-interpolation-filters="sRGB">
<feFlood flood-opacity="0" result="BackgroundImageFix"/>
<feBlend mode="normal" in="SourceGraphic" in2="BackgroundImageFix" result="shape"/>
<feGaussianBlur stdDeviation="250" result="effect1_foregroundBlur_6_11"/>
</filter>
<filter id="filter1_f_6_11" x="-580.18" y="305.708" width="1275.98" height="1726.27" filterUnits="userSpaceOnUse" color-interpolation-filters="sRGB">
<feFlood flood-opacity="0" result="BackgroundImageFix"/>
<feBlend mode="normal" in="SourceGraphic" in2="BackgroundImageFix" result="shape"/>
<feGaussianBlur stdDeviation="250" result="effect1_foregroundBlur_6_11"/>
</filter>
<filter id="filter2_f_6_11" x="-596" y="0.479736" width="1350.35" height="1921.99" filterUnits="userSpaceOnUse" color-interpolation-filters="sRGB">
<feFlood flood-opacity="0" result="BackgroundImageFix"/>
<feBlend mode="normal" in="SourceGraphic" in2="BackgroundImageFix" result="shape"/>
<feGaussianBlur stdDeviation="250" result="effect1_foregroundBlur_6_11"/>
</filter>
<filter id="filter3_f_6_11" x="-583.495" y="1535.13" width="1290.16" height="1221.87" filterUnits="userSpaceOnUse" color-interpolation-filters="sRGB">
<feFlood flood-opacity="0" result="BackgroundImageFix"/>
<feBlend mode="normal" in="SourceGraphic" in2="BackgroundImageFix" result="shape"/>
<feGaussianBlur stdDeviation="250" result="effect1_foregroundBlur_6_11"/>
</filter>
</defs>
</svg>