<svg width="26" height="26" viewBox="0 0 26 26" fill="none" xmlns="http://www.w3.org/2000/svg">
<path d="M21.9778 24.9912H21.821C3.68919 23.9485 1.11475 8.64949 0.754883 3.98044C0.725886 3.61742 0.768806 3.25224 0.881182 2.90583C0.993559 2.55942 1.17318 2.23859 1.40977 1.96172C1.64635 1.68486 1.93523 1.45739 2.25988 1.29236C2.58452 1.12733 2.93853 1.02798 3.30164 1H8.38592C8.75553 0.999643 9.11673 1.11028 9.42274 1.31757C9.72874 1.52487 9.96546 1.81927 10.1022 2.16265L11.5048 5.61369C11.6398 5.94914 11.6733 6.31688 11.6011 6.67123C11.529 7.02557 11.3543 7.3509 11.0988 7.6068L9.13334 9.59068C9.44035 11.3353 10.2759 12.9436 11.5268 14.1979C12.7778 15.4521 14.3838 16.2919 16.1277 16.6035L18.13 14.6196C18.3898 14.3669 18.7182 14.1963 19.0742 14.129C19.4303 14.0617 19.7983 14.1008 20.1324 14.2413L23.6111 15.6346C23.9493 15.7757 24.2378 16.0142 24.44 16.3199C24.6421 16.6256 24.7486 16.9845 24.746 17.3509V22.223C24.746 22.9571 24.4544 23.6612 23.9353 24.1804C23.4161 24.6995 22.712 24.9912 21.9778 24.9912ZM3.52309 2.84548C3.27837 2.84548 3.04367 2.94269 2.87062 3.11574C2.69757 3.28879 2.60036 3.52349 2.60036 3.76821V3.84203C3.02482 9.30464 5.74689 22.223 21.9225 23.1457C22.0437 23.1532 22.1652 23.1367 22.28 23.0971C22.3949 23.0575 22.5007 22.9957 22.5916 22.9151C22.6825 22.8345 22.7566 22.7368 22.8096 22.6275C22.8626 22.5182 22.8935 22.3996 22.9006 22.2783V17.3509L19.4219 15.9576L16.7736 18.5874L16.3307 18.532C8.30287 17.5262 7.21404 9.49841 7.21404 9.41536L7.15868 8.97245L9.77925 6.32419L8.39515 2.84548H3.52309Z" fill="white" stroke="black" stroke-width="0.6"/>
</svg>
