<svg width="17" height="17" viewBox="0 0 17 17" fill="none" xmlns="http://www.w3.org/2000/svg">
<path d="M8.5 17C13.187 17 17 13.187 17 8.5C17 3.81296 13.187 0 8.5 0C3.81296 0 0 3.81296 0 8.5C0 13.187 3.81296 17 8.5 17ZM8.5 1.0625C12.6012 1.0625 15.9375 4.39875 15.9375 8.5C15.9375 12.6012 12.6012 15.9375 8.5 15.9375C4.39875 15.9375 1.0625 12.6012 1.0625 8.5C1.0625 4.39875 4.39875 1.0625 8.5 1.0625Z" fill="#8E8A95"/>
<path d="M5.59298 10.0265L6.70364 9.54417L6.39198 9.85655C6.2921 9.95642 6.23614 10.0917 6.23614 10.232V12.3109C6.23614 12.7869 6.81131 13.0178 7.14281 12.6863L8.25773 11.5714L10.6873 12.7862C11.0018 12.9435 11.3822 12.7572 11.4474 12.4058L12.8336 4.78346C12.9065 4.37334 12.5028 4.04184 12.1167 4.19342L3.10956 7.7188C2.70581 7.87605 2.65198 8.42855 3.01748 8.66159L5.09573 9.98759C5.24448 10.0825 5.43218 10.0974 5.59298 10.0265ZM11.6181 5.53075L10.5294 11.5197L8.39018 10.4508C8.18335 10.3474 7.93685 10.3906 7.77748 10.5507L7.29864 11.0296V10.4537L9.4286 8.32371C9.84156 7.91076 9.37689 7.22934 8.84139 7.46096L5.42935 8.94138L4.47027 8.32938L11.6181 5.53075Z" fill="#8E8A95"/>
</svg>