<svg width="17" height="17" viewBox="0 0 17 17" fill="none" xmlns="http://www.w3.org/2000/svg">
<path d="M14.474 2.4687C12.877 0.877678 10.7525 0.0009079 8.49144 0C6.23544 0 4.10759 0.875992 2.50009 2.46663C0.88974 4.05999 0.0020752 6.17747 0 8.42127V8.42387V8.42542C0.000259399 9.78351 0.357063 11.1535 1.03436 12.4041L0.0232163 17L4.67204 15.9426C5.84946 16.5359 7.16319 16.8488 8.4882 16.8493H8.49157C10.7472 16.8493 12.875 15.9732 14.4828 14.3824C16.0946 12.7877 16.9826 10.673 16.9837 8.42776C16.9843 6.19835 16.0931 4.08204 14.474 2.4687ZM8.49144 15.5225H8.48846C7.29872 15.5219 6.11988 15.2232 5.07956 14.6584L4.85972 14.5391L1.76846 15.2422L2.43991 12.1906L2.31047 11.9674C1.6669 10.8576 1.32683 9.63241 1.32683 8.424C1.32929 4.51264 4.54299 1.32683 8.49118 1.32683C10.3985 1.32761 12.1907 2.06702 13.5375 3.40864C14.9047 4.771 15.6573 6.55334 15.6567 8.42737C15.6551 12.3396 12.4408 15.5225 8.49144 15.5225Z" fill="#8E8A95"/>
<path d="M6.18085 4.71021H5.80862C5.67905 4.71021 5.46867 4.75871 5.29073 4.95235C5.11265 5.14613 4.61084 5.61447 4.61084 6.56699C4.61084 7.5195 5.30694 8.43985 5.40395 8.56916C5.5011 8.69834 6.74764 10.7154 8.72193 11.4914C10.3628 12.1363 10.6967 12.008 11.0528 11.9757C11.4089 11.9436 12.202 11.5075 12.3639 11.0555C12.5258 10.6035 12.5258 10.216 12.4773 10.135C12.4286 10.0544 12.299 10.006 12.1049 9.90922C11.9106 9.81233 10.9586 9.33607 10.7805 9.27135C10.6024 9.20689 10.473 9.1746 10.3434 9.3685C10.2139 9.56201 9.83242 10.0097 9.71906 10.1389C9.60583 10.2682 9.49248 10.2844 9.29819 10.1876C9.1039 10.0904 8.48471 9.88237 7.7427 9.22298C7.16515 8.70975 6.76437 8.05529 6.65102 7.86152C6.53779 7.66788 6.63895 7.56308 6.73636 7.46645C6.82365 7.37981 6.94154 7.26127 7.03869 7.1483C7.1357 7.0352 7.16333 6.95453 7.22818 6.82535C7.2929 6.69617 7.26047 6.58307 7.21197 6.48631C7.16333 6.38943 6.79057 5.43211 6.61781 5.04924H6.61794C6.47242 4.72681 6.31924 4.71591 6.18085 4.71021Z" fill="#8E8A95"/>
</svg>